# xmcd
#
# Track frame offsets: 
#        150
#        14596
#        27546
#        39902
#        53370
#        68325
#        81451
#        95379
#        106416
#        120349
#        130847
#        143284
#        153932
#        163853
#        176408
#        189417
#        199770
#        212248
#        223591
#        236280
#        248168
#        258682
#        270209
#        281377
#        293028
#        306408
#
# Disc length: 4266 seconds
#
# Revision: 0
# Processed by: cddbd v1.5.2PL0 Copyright (c) Steve Scherf et al.
# Submitted via: ExactAudioCopy v1.3
#
DISCID=6310a81a
DTITLE=Elmore James and His Broomdusters - Slide Order Of The Blues (The
DTITLE=Singles As And Bs 1952-1962) Disc 2
DYEAR=2016
DGENRE=Blues
TTITLE0=Dust My Blues
TTITLE1=I Was A Fool
TTITLE2=Blues Before Sunrise
TTITLE3=Good-Bye
TTITLE4=Wild About You Baby
TTITLE5=Long Tall Woman
TTITLE6=The 12 Year Old Boy
TTITLE7=Coming Home
TTITLE8=It Hurts Me Too
TTITLE9=Elmore's Contribution To Jazz
TTITLE10=Cry For Me Baby
TTITLE11=Take Me Where You Go
TTITLE12=Bobby's Rock
TTITLE13=The Sky Is Crying
TTITLE14=Held My Baby Last Night
TTITLE15=I Can't Hold Out (Talk To Me Baby)
TTITLE16=The Sun Is Shining
TTITLE17=Rollin' And Tumblin'
TTITLE18=I'm Worried
TTITLE19=Knocking At Your Door
TTITLE20=Done Somebody Wrong
TTITLE21=Fine Little Mama
TTITLE22=Look On Yonder Wall
TTITLE23=Shake Your Moneymaker
TTITLE24=Stranger Blues
TTITLE25=Anna Lee
EXTD=
EXTT0=
EXTT1=
EXTT2=
EXTT3=
EXTT4=
EXTT5=
EXTT6=
EXTT7=
EXTT8=
EXTT9=
EXTT10=
EXTT11=
EXTT12=
EXTT13=
EXTT14=
EXTT15=
EXTT16=
EXTT17=
EXTT18=
EXTT19=
EXTT20=
EXTT21=
EXTT22=
EXTT23=
EXTT24=
EXTT25=
PLAYORDER=
